<svg width="32" height="28" viewBox="0 0 32 28" fill="none" xmlns="http://www.w3.org/2000/svg">
<g clip-path="url(#clip0)">
<path d="M32 14.3215C32 13.3698 31.9101 12.413 31.7181 11.4767H16.3209V16.8679H25.1382C24.7723 18.6066 23.5967 20.1448 21.8752 21.1222V24.6202H27.1355C30.2246 22.1819 32 18.5809 32 14.3215Z" fill="#4285F4"/>
<path d="M16.3208 28C20.7235 28 24.4363 26.7603 27.1415 24.6203L21.8811 21.1222C20.4176 21.9761 18.5282 22.4597 16.3268 22.4597C12.0682 22.4597 8.4573 19.9956 7.1617 16.6827H1.7334V20.2888C4.50453 25.0164 10.1488 28 16.3208 28Z" fill="#34A853"/>
<path d="M7.15559 16.6827C6.4718 14.9439 6.4718 13.0612 7.15559 11.3224V7.71631H1.73328C-0.581993 11.6722 -0.581993 16.3329 1.73328 20.2888L7.15559 16.6827Z" fill="#FBBC04"/>
<path d="M16.3208 5.54036C18.6481 5.50949 20.8974 6.26055 22.5829 7.6392L27.2434 3.64214C24.2924 1.26551 20.3756 -0.0411259 16.3208 2.79163e-05C10.1488 2.79163e-05 4.50453 2.98368 1.7334 7.71636L7.1557 11.3225C8.4453 8.00444 12.0622 5.54036 16.3208 5.54036Z" fill="#EA4335"/>
</g>
<defs>
<clipPath id="clip0">
<rect width="32" height="28" fill="white"/>
</clipPath>
</defs>
</svg>
