<svg width="26" height="26" viewBox="0 0 26 26" fill="none" xmlns="http://www.w3.org/2000/svg">
<path d="M14.25 6.75C14.25 6.05964 13.6904 5.5 13 5.5C12.3096 5.5 11.75 6.05964 11.75 6.75V13C11.75 13.6904 12.3096 14.25 13 14.25H18C18.6904 14.25 19.25 13.6904 19.25 13C19.25 12.3096 18.6904 11.75 18 11.75H14.25V6.75Z" fill="#BCBCBC"/>
<path fill-rule="evenodd" clip-rule="evenodd" d="M25.5 13C25.5 19.9036 19.9036 25.5 13 25.5C6.09644 25.5 0.5 19.9036 0.5 13C0.5 6.09644 6.09644 0.5 13 0.5C19.9036 0.5 25.5 6.09644 25.5 13ZM23 13C23 18.5228 18.5228 23 13 23C7.47715 23 3 18.5228 3 13C3 7.47715 7.47715 3 13 3C18.5228 3 23 7.47715 23 13Z" fill="#BCBCBC"/>
</svg>