<svg width="30" height="28" viewBox="0 0 30 28" fill="none" xmlns="http://www.w3.org/2000/svg">
<path fill-rule="evenodd" clip-rule="evenodd" d="M14.9999 0.666626C16.1552 0.666626 17.1791 1.41052 17.5361 2.50925L19.6315 8.95842H26.4126C27.5679 8.95842 28.5918 9.70232 28.9488 10.801C29.3058 11.8998 28.9147 13.1034 27.98 13.7825L22.494 17.7683L24.5895 24.2175C24.9465 25.3162 24.5554 26.5198 23.6208 27.1989C22.6862 27.8779 21.4206 27.8779 20.4859 27.1989L14.9999 23.2131L9.51394 27.1989C8.57931 27.8779 7.31372 27.8779 6.37909 27.1989C5.44445 26.5198 5.05336 25.3162 5.41036 24.2175L7.50583 17.7683L2.01983 13.7825C1.0852 13.1034 0.69411 11.8998 1.05111 10.801C1.40811 9.70232 2.43199 8.95842 3.58726 8.95842H10.3683L12.4638 2.50925C12.8208 1.41052 13.8447 0.666626 14.9999 0.666626ZM12.3058 11.6251H3.58726L10.6407 16.7497L7.94651 25.0415L14.9999 19.9169L22.0534 25.0415L19.3592 16.7497L26.4126 11.6251H17.6941L14.9999 3.33329L12.3058 11.6251Z" fill="black"/>
</svg>
