<svg width="24" height="28" viewBox="0 0 24 28" fill="none" xmlns="http://www.w3.org/2000/svg">
<path d="M6.66667 6.00001C5.93029 6.00001 5.33333 6.59696 5.33333 7.33334C5.33333 8.06972 5.93029 8.66667 6.66667 8.66667H17.3333C18.0697 8.66667 18.6667 8.06972 18.6667 7.33334C18.6667 6.59696 18.0697 6.00001 17.3333 6.00001H6.66667Z" fill="black"/>
<path d="M5.33333 12.6667C5.33333 11.9303 5.93029 11.3333 6.66667 11.3333H17.3333C18.0697 11.3333 18.6667 11.9303 18.6667 12.6667C18.6667 13.4031 18.0697 14 17.3333 14H6.66667C5.93029 14 5.33333 13.4031 5.33333 12.6667Z" fill="black"/>
<path d="M6.66667 16.6667C5.93029 16.6667 5.33333 17.2636 5.33333 18C5.33333 18.7364 5.93029 19.3333 6.66667 19.3333H12C12.7364 19.3333 13.3333 18.7364 13.3333 18C13.3333 17.2636 12.7364 16.6667 12 16.6667H6.66667Z" fill="black"/>
<path fill-rule="evenodd" clip-rule="evenodd" d="M2.66667 0.666672C1.19391 0.666672 0 1.86058 0 3.33334V24.6667C0 26.1394 1.19391 27.3333 2.66667 27.3333H21.3333C22.8061 27.3333 24 26.1394 24 24.6667V3.33334C24 1.86058 22.8061 0.666672 21.3333 0.666672H2.66667ZM21.3333 3.33334H2.66667L2.66667 24.6667H14.0829L21.3333 16.812V3.33334ZM21.3333 24.6667H17.712L21.3333 20.7435V24.6667Z" fill="black"/>
</svg>
