<svg width="37" height="34" viewBox="0 0 37 34" fill="none" xmlns="http://www.w3.org/2000/svg">
<path d="M25.9947 0.545943C26.3216 0.545943 26.6519 0.559539 26.9873 0.585372C29.4006 0.771647 31.7194 1.63232 33.3524 2.9444C34.9888 4.25784 36.0084 6.11243 36.1482 8.03228C36.2982 10.0908 35.4607 11.9712 33.7906 13.3255L18.76 25.4497C16.4967 27.2838 12.8027 27.2893 10.5259 25.4605C9.42378 24.574 8.81541 23.3952 8.81204 22.1402C8.80867 20.8852 9.41198 19.7037 10.5091 18.8158L21.0317 10.4593C21.8794 9.78218 23.2478 9.79441 24.082 10.4783C24.9178 11.1636 24.9077 12.2649 24.0584 12.9393L13.5509 21.2836C13.2813 21.5025 13.1246 21.8085 13.1262 22.1334C13.1262 22.4584 13.2847 22.7643 13.5695 22.9941C13.856 23.2239 14.2351 23.349 14.6379 23.349L14.6396 23.349C15.0424 23.349 15.4215 23.2225 15.7063 22.9914L30.737 10.8672C32.3935 9.52384 32.1913 6.92279 30.3089 5.41084C29.3837 4.66846 27.9883 4.15994 26.5744 4.04981C25.779 3.99135 24.2825 4.00766 23.268 4.8289L6.36508 18.3617C4.92083 19.5297 4.19618 21.2156 4.331 23.0988C4.46582 24.9697 5.44325 26.7672 7.01389 28.0289C10.322 30.6857 16.0434 30.9128 19.0178 28.5021L31.1869 18.6445C32.0278 17.962 33.3929 17.962 34.2372 18.6391C35.0815 19.3175 35.0849 20.4189 34.2439 21.1001L22.0748 30.9577C17.427 34.7267 8.96708 34.5078 3.97036 30.4954C1.65653 28.6367 0.219022 26.0139 0.0235339 23.3C-0.183749 20.4134 0.985806 17.7852 3.31649 15.898L20.2194 2.36518C21.6822 1.18091 23.7078 0.545943 25.9947 0.545943Z" fill="white"/>
</svg>
