<svg width="38" height="34" viewBox="0 0 38 34" fill="none" xmlns="http://www.w3.org/2000/svg">
<path d="M26.9119 0.545943C27.2389 0.545943 27.5692 0.559539 27.9045 0.585372C30.3178 0.771647 32.6367 1.63232 34.2697 2.9444C35.906 4.25784 36.9256 6.11243 37.0655 8.03228C37.2155 10.0908 36.3779 11.9712 34.7078 13.3255L19.6772 25.4497C17.414 27.2838 13.7199 27.2893 11.4432 25.4605C10.341 24.574 9.73265 23.3952 9.72928 22.1402C9.7259 20.8852 10.3292 19.7037 11.4263 18.8158L21.9489 10.4593C22.7966 9.78218 24.165 9.79441 24.9992 10.4783C25.8351 11.1636 25.825 12.2649 24.9756 12.9393L14.4682 21.2836C14.1985 21.5025 14.0418 21.8085 14.0435 22.1334C14.0435 22.4584 14.2019 22.7643 14.4867 22.9941C14.7732 23.2239 15.1524 23.349 15.5551 23.349L15.5568 23.349C15.9596 23.349 16.3388 23.2225 16.6236 22.9914L31.6542 10.8672C33.3108 9.52384 33.1086 6.92279 31.2261 5.41084C30.3009 4.66846 28.9056 4.15994 27.4917 4.04981C26.6962 3.99135 25.1997 4.00766 24.1852 4.8289L7.28231 18.3617C5.83807 19.5297 5.11342 21.2156 5.24823 23.0988C5.38305 24.9697 6.36049 26.7672 7.93113 28.0289C11.2392 30.6857 16.9606 30.9128 19.9351 28.5021L32.1042 18.6445C32.9451 17.962 34.3101 17.962 35.1544 18.6391C35.9987 19.3175 36.0021 20.4189 35.1612 21.1001L22.9921 30.9577C18.3442 34.7267 9.88432 34.5078 4.88759 30.4954C2.57377 28.6367 1.13626 26.0139 0.94077 23.3C0.733487 20.4134 1.90304 17.7852 4.23372 15.898L21.1366 2.36518C22.5994 1.18091 24.6251 0.545943 26.9119 0.545943Z" fill="black"/>
</svg>
