<svg width="27" height="25" viewBox="0 0 27 25" fill="none" xmlns="http://www.w3.org/2000/svg">
<path d="M18.9339 0.532641C19.3762 -0.0561436 20.212 -0.174931 20.8008 0.267322C24.3601 2.94087 26.6667 7.20179 26.6667 12.0011C26.6667 16.8003 24.3601 21.0612 20.8008 23.7348C20.212 24.177 19.3762 24.0583 18.9339 23.4695C18.4917 22.8807 18.6104 22.0449 19.1992 21.6026C22.1169 19.4111 24 15.9262 24 12.0011C24 8.07595 22.1169 4.59105 19.1992 2.3995C18.6104 1.95725 18.4917 1.12143 18.9339 0.532641Z" fill="black"/>
<path fill-rule="evenodd" clip-rule="evenodd" d="M14.6667 1.33437C14.6667 0.809318 14.3585 0.333146 13.8796 0.118054C13.4006 -0.0970387 12.84 -0.0110002 12.4475 0.337828L6.82639 5.3344H4C1.79086 5.3344 0 7.12526 0 9.3344V14.6677C0 16.8769 1.79086 18.6677 4 18.6677H6.82644L12.4475 23.6643C12.84 24.0131 13.4006 24.0991 13.8796 23.884C14.3585 23.6689 14.6667 23.1928 14.6667 22.6677V1.33437ZM9.33333 17.3282L12 19.6986V4.3035L9.33333 6.67388V17.3282ZM4 8.00106H6.66667V16.0011H4C3.26362 16.0011 2.66667 15.4041 2.66667 14.6677V9.3344C2.66667 8.59802 3.26362 8.00106 4 8.00106Z" fill="black"/>
<path d="M18.0962 5.57414C17.4922 5.15286 16.6611 5.30095 16.2398 5.90492C15.8185 6.50889 15.9666 7.34002 16.5706 7.7613C17.8404 8.64703 18.6667 10.1144 18.6667 11.7747C18.6667 13.4349 17.8404 14.9023 16.5706 15.788C15.9666 16.2093 15.8185 17.0404 16.2398 17.6444C16.6611 18.2484 17.4922 18.3965 18.0962 17.9752C20.0503 16.6121 21.3334 14.3433 21.3334 11.7747C21.3334 9.20599 20.0503 6.9372 18.0962 5.57414Z" fill="black"/>
</svg>
