<svg width="42" height="38" viewBox="0 0 42 38" fill="none" xmlns="http://www.w3.org/2000/svg">
<path d="M8.49999 10.6667C8.49999 9.51607 9.43273 8.58333 10.5833 8.58333H31.4167C32.5673 8.58333 33.5 9.51607 33.5 10.6667C33.5 11.8173 32.5673 12.75 31.4167 12.75H10.5833C9.43273 12.75 8.49999 11.8173 8.49999 10.6667Z" fill="black"/>
<path d="M10.5833 16.9167C9.43273 16.9167 8.49999 17.8494 8.49999 19C8.49999 20.1506 9.43273 21.0833 10.5833 21.0833H18.9167C20.0672 21.0833 21 20.1506 21 19C21 17.8494 20.0672 16.9167 18.9167 16.9167H10.5833Z" fill="black"/>
<path fill-rule="evenodd" clip-rule="evenodd" d="M33.5 29.4167H37.6667C39.9678 29.4167 41.8333 27.5512 41.8333 25.25V4.41667C41.8333 2.11548 39.9678 0.25 37.6667 0.25H4.33332C2.03214 0.25 0.166656 2.11548 0.166656 4.41667V25.25C0.166656 27.5512 2.03214 29.4167 4.33332 29.4167H21V33.5833C21 37.5876 26.0975 39.2867 28.5 36.0833L33.5 29.4167ZM25.1667 25.25V33.5833L31.4167 25.25H37.6667V4.41667H4.33332V25.25H25.1667Z" fill="black"/>
</svg>
