<svg width="50" height="50" viewBox="0 0 50 50" fill="none" xmlns="http://www.w3.org/2000/svg">
<path d="M12.5 16.6667C12.5 15.5161 13.4327 14.5833 14.5833 14.5833H35.4167C36.5673 14.5833 37.5 15.5161 37.5 16.6667C37.5 17.8173 36.5673 18.75 35.4167 18.75H14.5833C13.4327 18.75 12.5 17.8173 12.5 16.6667Z" fill="#CCD6F6"/>
<path d="M14.5833 22.9167C13.4327 22.9167 12.5 23.8494 12.5 25C12.5 26.1506 13.4327 27.0833 14.5833 27.0833H22.9167C24.0672 27.0833 25 26.1506 25 25C25 23.8494 24.0672 22.9167 22.9167 22.9167H14.5833Z" fill="#CCD6F6"/>
<path fill-rule="evenodd" clip-rule="evenodd" d="M37.5 35.4167H41.6667C43.9678 35.4167 45.8333 33.5512 45.8333 31.25V10.4167C45.8333 8.11548 43.9678 6.25 41.6667 6.25H8.33332C6.03214 6.25 4.16666 8.11548 4.16666 10.4167V31.25C4.16666 33.5512 6.03214 35.4167 8.33332 35.4167H25V39.5833C25 43.5876 30.0975 45.2867 32.5 42.0833L37.5 35.4167ZM29.1667 31.25V39.5833L35.4167 31.25H41.6667V10.4167H8.33332V31.25H29.1667Z" fill="#CCD6F6"/>
</svg>
