<svg width="27" height="24" viewBox="0 0 27 24" fill="none" xmlns="http://www.w3.org/2000/svg">
<path d="M6.66667 17.3333C6.66667 18.0697 7.26362 18.6667 8 18.6667C8.73638 18.6667 9.33333 18.0697 9.33333 17.3333V14.6667C9.33333 13.9303 8.73638 13.3333 8 13.3333C7.26362 13.3333 6.66667 13.9303 6.66667 14.6667V17.3333Z" fill="#CCD6F6"/>
<path d="M13.3333 18.6667C12.597 18.6667 12 18.0697 12 17.3333V6.66667C12 5.93029 12.597 5.33333 13.3333 5.33333C14.0697 5.33333 14.6667 5.93029 14.6667 6.66667V17.3333C14.6667 18.0697 14.0697 18.6667 13.3333 18.6667Z" fill="#CCD6F6"/>
<path d="M17.3333 17.3333C17.3333 18.0697 17.9303 18.6667 18.6667 18.6667C19.403 18.6667 20 18.0697 20 17.3333V9.33333C20 8.59695 19.403 8 18.6667 8C17.9303 8 17.3333 8.59695 17.3333 9.33333V17.3333Z" fill="#CCD6F6"/>
<path fill-rule="evenodd" clip-rule="evenodd" d="M0 2.66667C0 1.19391 1.19391 0 2.66667 0H24C25.4728 0 26.6667 1.19391 26.6667 2.66667V21.3333C26.6667 22.8061 25.4728 24 24 24H2.66667C1.19391 24 0 22.8061 0 21.3333V2.66667ZM2.66667 2.66667H24V21.3333H2.66667V2.66667Z" fill="#CCD6F6"/>
</svg>
