<svg width="33" height="33" viewBox="0 0 33 33" fill="none" xmlns="http://www.w3.org/2000/svg">
<path fill-rule="evenodd" clip-rule="evenodd" d="M17.7677 0.511837C18.4186 -0.139037 19.4739 -0.139037 20.1248 0.511837L31.9099 12.297C32.5608 12.9478 32.5608 14.0031 31.9099 14.654C31.259 15.3048 30.2037 15.3048 29.5529 14.654L28.6334 13.7345L21.0909 25.0482L22.4818 26.4391C23.1327 27.09 23.1327 28.1452 22.4818 28.7961C21.8309 29.447 20.7756 29.447 20.1248 28.7961L13.0406 21.712C12.9918 21.7781 12.9374 21.8414 12.8775 21.9012L2.86886 31.9099C2.21799 32.5608 1.16271 32.5608 0.511837 31.9099C-0.139037 31.259 -0.139037 30.2038 0.511837 29.5529L10.5205 19.5442C10.5804 19.4843 10.6437 19.43 10.7098 19.3811L3.6256 12.297C2.97472 11.6461 2.97472 10.5908 3.6256 9.93994C4.27647 9.28906 5.33175 9.28906 5.98262 9.93994L7.3735 11.3308L18.6872 3.78833L17.7677 2.86886C17.1169 2.21799 17.1169 1.16271 17.7677 0.511837ZM9.77721 13.7345L18.6872 22.6445L21.5304 18.3798C21.4505 18.3242 21.3745 18.2608 21.3033 18.1895L14.2322 11.1185C14.161 11.0473 14.0976 10.9712 14.0419 10.8914L9.77721 13.7345ZM26.2297 11.3308L23.4012 15.5735L16.8482 9.02048L21.0909 6.19203L26.2297 11.3308Z" fill="#CCD6F6"/>
</svg>
