<svg width="33" height="33" viewBox="0 0 33 33" fill="none" xmlns="http://www.w3.org/2000/svg">
<path fill-rule="evenodd" clip-rule="evenodd" d="M17.7677 0.511837C18.4186 -0.139037 19.4738 -0.139037 20.1247 0.511837L31.9098 12.297C32.5607 12.9478 32.5607 14.0031 31.9098 14.654C31.2589 15.3048 30.2037 15.3048 29.5528 14.654L28.6333 13.7345L21.0909 25.0482L22.4817 26.4391C23.1326 27.09 23.1326 28.1452 22.4817 28.7961C21.8308 29.447 20.7756 29.447 20.1247 28.7961L13.0406 21.712C12.9917 21.7781 12.9373 21.8414 12.8775 21.9012L2.8688 31.9099C2.21792 32.5608 1.16265 32.5608 0.511776 31.9099C-0.139098 31.259 -0.139098 30.2038 0.511776 29.5529L10.5205 19.5442C10.5803 19.4843 10.6436 19.43 10.7097 19.3811L3.62554 12.297C2.97466 11.6461 2.97466 10.5908 3.62554 9.93994C4.27641 9.28906 5.33169 9.28906 5.98256 9.93994L7.37344 11.3308L18.6872 3.78833L17.7677 2.86886C17.1168 2.21799 17.1168 1.16271 17.7677 0.511837ZM9.77715 13.7345L18.6872 22.6445L21.5303 18.3798C21.4505 18.3242 21.3744 18.2608 21.3032 18.1895L14.2321 11.1185C14.1609 11.0473 14.0975 10.9712 14.0419 10.8914L9.77715 13.7345ZM26.2296 11.3308L23.4012 15.5735L16.8482 9.02048L21.0909 6.19203L26.2296 11.3308Z" fill="black"/>
</svg>
