<svg width="32" height="32" viewBox="0 0 32 32" fill="none" xmlns="http://www.w3.org/2000/svg">
<path opacity="0.1" fill-rule="evenodd" clip-rule="evenodd" d="M0 16C0 7.16344 7.16344 0 16 0C24.8366 0 32 7.16344 32 16C32 24.8366 24.8366 32 16 32C7.16344 32 0 24.8366 0 16Z" fill="white"/>
<path fill-rule="evenodd" clip-rule="evenodd" d="M24.5333 15.9881C24.5333 16.5651 24.4746 17.1414 24.3592 17.7032C24.2467 18.2516 24.08 18.79 23.8617 19.3047C23.6483 19.8103 23.3837 20.2975 23.0745 20.7518C22.77 21.2033 22.4191 21.6269 22.0337 22.013C21.6474 22.3975 21.2224 22.7474 20.7711 23.0532C20.3152 23.3603 19.8273 23.6245 19.3215 23.8388C18.806 24.056 18.2664 24.2224 17.7184 24.3348C17.1559 24.4505 16.5776 24.5095 15.9996 24.5095C15.4213 24.5095 14.8429 24.4505 14.2812 24.3348C13.7324 24.2224 13.1928 24.056 12.6778 23.8388C12.1719 23.6245 11.6836 23.3603 11.2277 23.0532C10.7764 22.7474 10.3514 22.3975 9.96599 22.013C9.58015 21.6269 9.22928 21.2033 8.92427 20.7518C8.61675 20.2975 8.35172 19.8102 8.13755 19.3047C7.91918 18.79 7.75211 18.2516 7.63919 17.7032C7.52503 17.1414 7.46667 16.5651 7.46667 15.9881C7.46667 15.4105 7.52499 14.833 7.63922 14.2725C7.75215 13.7241 7.91922 13.1848 8.13759 12.671C8.35175 12.165 8.61678 11.6774 8.9243 11.223C9.22931 10.7711 9.58018 10.3484 9.96602 9.96183C10.3515 9.57734 10.7765 9.22828 11.2278 8.92287C11.6836 8.61453 12.172 8.35035 12.6778 8.13563C13.1929 7.91797 13.7324 7.75115 14.2812 7.63965C14.8429 7.52482 15.4213 7.46655 15.9997 7.46655C16.5776 7.46655 17.1559 7.52482 17.7185 7.63965C18.2664 7.75118 18.806 7.91801 19.3215 8.13563C19.8273 8.35032 20.3153 8.61453 20.7711 8.92287C21.2224 9.22828 21.6475 9.57734 22.0337 9.96183C22.4191 10.3484 22.77 10.7711 23.0746 11.223C23.3837 11.6774 23.6483 12.1651 23.8617 12.671C24.08 13.1848 24.2467 13.7241 24.3592 14.2725C24.4746 14.833 24.5333 15.4105 24.5333 15.9881ZM12.8903 9.40593C10.8581 10.3642 9.34131 12.2341 8.86836 14.4876C9.06048 14.4893 12.0973 14.5276 15.5962 13.5993C14.3349 11.3615 12.9874 9.53537 12.8903 9.40593ZM16.2 14.7198C12.4477 15.8416 8.84711 15.7609 8.71795 15.7559C8.71585 15.8341 8.71211 15.9098 8.71211 15.988C8.71211 17.8575 9.41839 19.5618 10.5793 20.8505C10.5768 20.8467 12.5711 17.3137 16.5038 16.0438C16.5988 16.0122 16.6955 15.9839 16.7913 15.9564C16.6084 15.5429 16.4087 15.1284 16.2 14.7198ZM20.8124 10.5265C19.5293 9.39677 17.8447 8.71152 15.9996 8.71152C15.4075 8.71152 14.8329 8.78309 14.2824 8.9154C14.3916 9.06188 15.7604 10.8752 17.0067 13.1603C19.7565 12.1309 20.7944 10.5531 20.8124 10.5265ZM17.288 17.1622C17.2718 17.1676 17.2556 17.1723 17.2397 17.1781C12.94 18.6748 11.5358 21.6913 11.5206 21.7242C12.7578 22.685 14.3096 23.2646 15.9996 23.2646C17.0088 23.2646 17.9701 23.0594 18.8448 22.6879C18.7368 22.0521 18.3135 19.8235 17.288 17.1622ZM20.0719 22.023C21.7082 20.9204 22.8703 19.1695 23.1945 17.1414C23.0445 17.0931 21.0057 16.4486 18.6535 16.8252C19.6093 19.4482 19.9977 21.5844 20.0719 22.023ZM17.5676 14.2446C17.7368 14.5917 17.9006 14.9449 18.0518 15.2998C18.1056 15.4272 18.1581 15.552 18.2093 15.6768C20.7128 15.3622 23.1792 15.8915 23.2846 15.9131C23.2679 14.188 22.65 12.6048 21.6275 11.3653C21.6137 11.3848 20.4449 13.0712 17.5676 14.2446Z" fill="white"/>
</svg>
