<svg width="32" height="32" viewBox="0 0 32 32" fill="none" xmlns="http://www.w3.org/2000/svg">
<path opacity="0.1" fill-rule="evenodd" clip-rule="evenodd" d="M0 16C0 7.16344 7.16344 0 16 0C24.8366 0 32 7.16344 32 16C32 24.8366 24.8366 32 16 32C7.16344 32 0 24.8366 0 16Z" fill="white"/>
<path fill-rule="evenodd" clip-rule="evenodd" d="M16.0008 7.46655C13.6833 7.46655 13.3924 7.47669 12.4822 7.51811C11.5737 7.55971 10.9536 7.70353 10.4111 7.91456C9.84981 8.13252 9.37372 8.42407 8.8994 8.89857C8.42473 9.37288 8.13317 9.84898 7.9145 10.41C7.70294 10.9528 7.55894 11.5731 7.51805 12.4812C7.47734 13.3914 7.46667 13.6824 7.46667 16C7.46667 18.3175 7.47699 18.6075 7.51823 19.5177C7.56001 20.4262 7.70383 21.0462 7.91468 21.5888C8.13282 22.1501 8.42437 22.6262 8.89887 23.1005C9.37301 23.5752 9.8491 23.8674 10.41 24.0854C10.9529 24.2964 11.5732 24.4402 12.4815 24.4818C13.3917 24.5233 13.6824 24.5334 15.9997 24.5334C18.3175 24.5334 18.6074 24.5233 19.5176 24.4818C20.4261 24.4402 21.0469 24.2964 21.5898 24.0854C22.1509 23.8674 22.6263 23.5752 23.1004 23.1005C23.5751 22.6262 23.8667 22.1501 24.0853 21.589C24.2951 21.0462 24.4391 20.426 24.4818 19.5179C24.5227 18.6076 24.5333 18.3175 24.5333 16C24.5333 13.6824 24.5227 13.3916 24.4818 12.4814C24.4391 11.5729 24.2951 10.9528 24.0853 10.4102C23.8667 9.84898 23.5751 9.37288 23.1004 8.89857C22.6258 8.4239 22.1511 8.13234 21.5893 7.91456C21.0453 7.70353 20.4249 7.55971 19.5164 7.51811C18.6062 7.47669 18.3164 7.46655 15.9981 7.46655H16.0008ZM15.2353 9.00432C15.4625 9.00397 15.716 9.00432 16.0008 9.00432C18.2792 9.00432 18.5492 9.0125 19.449 9.05339C20.281 9.09143 20.7326 9.23046 21.0334 9.34726C21.4316 9.50193 21.7155 9.68682 22.014 9.98549C22.3127 10.2842 22.4976 10.5686 22.6526 10.9668C22.7694 11.2673 22.9086 11.7188 22.9464 12.5508C22.9873 13.4504 22.9962 13.7206 22.9962 15.998C22.9962 18.2754 22.9873 18.5456 22.9464 19.4451C22.9084 20.2772 22.7694 20.7287 22.6526 21.0292C22.4979 21.4274 22.3127 21.7109 22.014 22.0094C21.7153 22.3081 21.4318 22.493 21.0334 22.6477C20.7329 22.765 20.281 22.9037 19.449 22.9417C18.5494 22.9826 18.2792 22.9915 16.0008 22.9915C13.7222 22.9915 13.4521 22.9826 12.5526 22.9417C11.7205 22.9033 11.269 22.7643 10.968 22.6475C10.5698 22.4928 10.2853 22.3079 9.98666 22.0093C9.68799 21.7106 9.5031 21.4269 9.34808 21.0284C9.23128 20.728 9.09208 20.2764 9.05421 19.4444C9.01332 18.5449 9.00514 18.2746 9.00514 15.9959C9.00514 13.7171 9.01332 13.4483 9.05421 12.5487C9.09226 11.7167 9.23128 11.2651 9.34808 10.9643C9.50275 10.5661 9.68799 10.2817 9.98666 9.983C10.2853 9.68433 10.5698 9.49944 10.968 9.34441C11.2688 9.22708 11.7205 9.08841 12.5526 9.05019C13.3398 9.01463 13.6448 9.00397 15.2353 9.00219V9.00432ZM20.5558 10.4212C19.9905 10.4212 19.5318 10.8794 19.5318 11.4449C19.5318 12.0102 19.9905 12.4689 20.5558 12.4689C21.1212 12.4689 21.5799 12.0102 21.5799 11.4449C21.5799 10.8795 21.1212 10.4212 20.5558 10.4212ZM16.0008 11.6177C13.5807 11.6177 11.6186 13.5798 11.6186 16C11.6186 18.4201 13.5807 20.3813 16.0008 20.3813C18.4209 20.3813 20.3824 18.4201 20.3824 16C20.3824 13.5798 18.4209 11.6177 16.0008 11.6177ZM16.0008 13.1555C17.5717 13.1555 18.8453 14.4289 18.8453 16C18.8453 17.5708 17.5717 18.8444 16.0008 18.8444C14.4298 18.8444 13.1563 17.5708 13.1563 16C13.1563 14.4289 14.4298 13.1555 16.0008 13.1555Z" fill="white"/>
</svg>
