<svg width="32" height="32" viewBox="0 0 32 32" fill="none" xmlns="http://www.w3.org/2000/svg">
<path opacity="0.1" fill-rule="evenodd" clip-rule="evenodd" d="M0 16C0 7.16344 7.16344 0 16 0C24.8366 0 32 7.16344 32 16C32 24.8366 24.8366 32 16 32C7.16344 32 0 24.8366 0 16Z" fill="white"/>
<path fill-rule="evenodd" clip-rule="evenodd" d="M15.5208 13.0051L15.5544 13.5587L14.9948 13.4909C12.9579 13.2311 11.1784 12.3498 9.66756 10.8696L8.92891 10.1352L8.73865 10.6776C8.33575 11.8865 8.59316 13.1633 9.43253 14.022C9.8802 14.4965 9.77948 14.5643 9.00725 14.2819C8.73865 14.1915 8.50363 14.1237 8.48124 14.1576C8.4029 14.2367 8.6715 15.2648 8.88414 15.6716C9.17513 16.2365 9.76828 16.7902 10.4174 17.1178L10.9658 17.3777L10.3167 17.389C9.68994 17.389 9.66756 17.4003 9.73471 17.6376C9.95854 18.372 10.8427 19.1516 11.8276 19.4906L12.5214 19.7278L11.9171 20.0894C11.0218 20.6091 9.96973 20.9029 8.91772 20.9255C8.41409 20.9368 8 20.982 8 21.0159C8 21.1289 9.36538 21.7616 10.16 22.0102C12.5438 22.7446 15.3753 22.4282 17.5017 21.1741C19.0126 20.2815 20.5235 18.5076 21.2286 16.7902C21.6091 15.875 21.9896 14.2028 21.9896 13.4006C21.9896 12.8808 22.0232 12.813 22.6499 12.1916C23.0192 11.83 23.3662 11.4346 23.4333 11.3216C23.5452 11.1069 23.534 11.1069 22.9633 11.299C22.012 11.638 21.8777 11.5928 22.3477 11.0843C22.6947 10.7228 23.1088 10.0674 23.1088 9.87536C23.1088 9.84146 22.9409 9.89796 22.7506 9.99964C22.5492 10.1126 22.1015 10.2821 21.7658 10.3838L21.1614 10.5759L20.613 10.203C20.3108 9.99964 19.8856 9.77367 19.6617 9.70588C19.0909 9.5477 18.218 9.57029 17.7032 9.75107C16.3042 10.2595 15.4201 11.5702 15.5208 13.0051Z" fill="white"/>
</svg>
