<svg width="28" height="24" viewBox="0 0 28 24" fill="none" xmlns="http://www.w3.org/2000/svg">
<path d="M7.33342 17.3333C7.33342 18.0697 7.93037 18.6667 8.66675 18.6667C9.40313 18.6667 10.0001 18.0697 10.0001 17.3333V14.6667C10.0001 13.9303 9.40313 13.3333 8.66675 13.3333C7.93037 13.3333 7.33342 13.9303 7.33342 14.6667V17.3333Z" fill="black"/>
<path d="M14.0001 18.6667C13.2637 18.6667 12.6667 18.0697 12.6667 17.3333V6.66667C12.6667 5.93029 13.2637 5.33333 14.0001 5.33333C14.7365 5.33333 15.3334 5.93029 15.3334 6.66667V17.3333C15.3334 18.0697 14.7365 18.6667 14.0001 18.6667Z" fill="black"/>
<path d="M18.0001 17.3333C18.0001 18.0697 18.597 18.6667 19.3334 18.6667C20.0698 18.6667 20.6667 18.0697 20.6667 17.3333V9.33333C20.6667 8.59695 20.0698 8 19.3334 8C18.597 8 18.0001 8.59695 18.0001 9.33333V17.3333Z" fill="black"/>
<path fill-rule="evenodd" clip-rule="evenodd" d="M0.666748 2.66667C0.666748 1.19391 1.86066 0 3.33341 0H24.6667C26.1395 0 27.3334 1.19391 27.3334 2.66667V21.3333C27.3334 22.8061 26.1395 24 24.6667 24H3.33342C1.86066 24 0.666748 22.8061 0.666748 21.3333V2.66667ZM3.33341 2.66667H24.6667V21.3333H3.33341V2.66667Z" fill="black"/>
</svg>
