<svg width="28" height="28" viewBox="0 0 28 28" fill="none" xmlns="http://www.w3.org/2000/svg">
<path d="M14.0001 3.33333C8.11604 3.33333 3.33341 8.13198 3.33341 14.0671C3.33341 15.7502 3.71744 17.3391 4.40066 18.7533C4.72098 19.4164 4.44314 20.2136 3.78008 20.5339C3.11702 20.8542 2.31983 20.5764 1.99951 19.9133C1.14515 18.1448 0.666748 16.1601 0.666748 14.0671C0.666748 6.67326 6.62928 0.666664 14.0001 0.666664C21.3709 0.666664 27.3334 6.67326 27.3334 14.0671C27.3334 16.1601 26.855 18.1448 26.0007 19.9133C25.6803 20.5764 24.8831 20.8542 24.2201 20.5339C23.557 20.2136 23.2792 19.4164 23.5995 18.7533C24.2827 17.3391 24.6667 15.7502 24.6667 14.0671C24.6667 8.13198 19.8841 3.33333 14.0001 3.33333Z" fill="black"/>
<path fill-rule="evenodd" clip-rule="evenodd" d="M17.3487 19.7659C19.333 18.611 20.6667 16.4613 20.6667 14C20.6667 10.3181 17.682 7.33333 14.0001 7.33333C10.3182 7.33333 7.33342 10.3181 7.33342 14C7.33342 16.4613 8.6672 18.611 10.6514 19.7659C8.61055 20.3189 7.04922 21.3266 5.91676 22.3395C5.07966 23.0882 4.47836 23.8373 4.08319 24.4044C3.88511 24.6887 3.73726 24.9295 3.63613 25.105C3.58552 25.1928 3.54647 25.2645 3.51856 25.3173C3.50459 25.3438 3.4934 25.3655 3.48493 25.3822L3.47425 25.4035L3.47042 25.4113L3.46888 25.4144L3.4682 25.4158C3.46789 25.4165 3.46759 25.4171 4.66675 26L3.46759 25.4171C3.14565 26.0794 3.42155 26.8772 4.08382 27.1992C4.7443 27.5202 5.53963 27.2467 5.86327 26.5883L5.86403 26.5868L5.87646 26.5629C5.88982 26.5376 5.91305 26.4947 5.9465 26.4367C6.01348 26.3205 6.12084 26.1446 6.27114 25.9289C6.57273 25.496 7.04087 24.9118 7.69452 24.3271C8.98904 23.1693 11.0171 22 14.0001 22C16.9831 22 19.0111 23.1693 20.3056 24.3271C20.9593 24.9118 21.4274 25.496 21.729 25.9289C21.8793 26.1446 21.9867 26.3205 22.0537 26.4367C22.0871 26.4947 22.1103 26.5376 22.1237 26.5629L22.1361 26.5868L22.1369 26.5883C22.4605 27.2467 23.2559 27.5202 23.9163 27.1992C24.5786 26.8772 24.8545 26.0794 24.5326 25.4171L23.3334 26C24.5326 25.4171 24.5323 25.4165 24.532 25.4158L24.5297 25.4113L24.5259 25.4035L24.5152 25.3822C24.5068 25.3655 24.4956 25.3438 24.4816 25.3173C24.4537 25.2645 24.4146 25.1928 24.364 25.105C24.2629 24.9295 24.115 24.6887 23.917 24.4044C23.5218 23.8373 22.9205 23.0882 22.0834 22.3395C20.9509 21.3266 19.3896 20.3189 17.3487 19.7659ZM14.0001 18C16.2092 18 18.0001 16.2091 18.0001 14C18.0001 11.7909 16.2092 10 14.0001 10C11.7909 10 10.0001 11.7909 10.0001 14C10.0001 16.2091 11.7909 18 14.0001 18Z" fill="black"/>
</svg>
