<svg width="497" height="500" viewBox="0 0 497 500" fill="none" xmlns="http://www.w3.org/2000/svg">
<g clip-path="url(#clip0)">
<path d="M418.51 409.33L310.63 347C301.49 341.73 294.08 327.57 294.08 315.39V14.49C294.08 2.30998 301.49 -3.29002 310.63 1.98999L418.51 64.27C427.65 69.55 435.06 83.71 435.06 95.89V396.82C435.06 409 427.65 414.61 418.51 409.33Z" fill="#B1B4C4"/>
<path d="M420.36 414.76L428.91 410.44L420.71 396.38L420.36 414.76Z" fill="#B1B4C4"/>
<path d="M292.4 4.98998L300.27 0.859985L298.68 12.46L292.4 4.98998Z" fill="#B1B4C4"/>
<path d="M411.63 412.77L303.75 350.48C294.61 345.21 287.2 331.05 287.2 318.87V17.93C287.2 5.75 294.61 0.149996 303.75 5.42L411.63 67.71C420.77 72.99 428.18 87.14 428.18 99.33V400.26C428.18 412.45 420.77 418.05 411.63 412.77Z" fill="#616E84"/>
<path d="M427 100.1V401C427 413.2 419.6 418.79 410.46 413.52L368.15 389.09L355 381.52L302.6 351.25C293.46 345.97 286.06 331.82 286.06 319.63V18.7C286.06 6.50998 293.46 0.919976 302.6 6.18998L410.49 68.47C419.63 73.76 427 87.9 427 100.1Z" fill="#20232D"/>
<path d="M419.25 97V390.1C419.25 397.47 414.08 400.48 407.68 396.78L374 377.35L371 375.63L370 375.04L362.71 370.84L341.61 358.67L332.86 353.62L329.34 351.62L305.43 337.82C299.04 334.13 293.86 325.15 293.86 317.75V24.63C293.86 17.24 299.04 14.25 305.43 17.94L347.55 42.26V42.38C347.55 48.13 351.55 55.12 356.55 57.99C361.55 60.86 365.55 58.53 365.55 52.79C365.55 52.79 365.55 52.7 365.55 52.66L407.68 77C414.08 80.67 419.25 89.65 419.25 97Z" fill="white"/>
<path d="M358.976 54.9647C360.311 54.1942 360.309 51.693 358.973 49.3781C357.636 47.0632 355.471 45.8111 354.136 46.5815C352.802 47.352 352.804 49.8532 354.14 52.1681C355.477 54.483 357.642 55.7351 358.976 54.9647Z" fill="#2B303F"/>
<path opacity="0.1" d="M356.55 52.43C356.13 52.1585 355.781 51.7912 355.53 51.3583C355.28 50.9255 355.136 50.4394 355.11 49.94C355.11 49.03 355.75 48.66 356.55 49.12C356.97 49.3894 357.321 49.7546 357.573 50.1857C357.825 50.6168 357.971 51.1015 358 51.6C358 52.51 357.34 52.88 356.55 52.43Z" fill="white"/>
<path d="M431.41 139.69C430.53 140.2 429.82 139.69 429.82 138.49V125.66C429.836 125.071 429.988 124.494 430.263 123.974C430.539 123.453 430.932 123.004 431.41 122.66C432.29 122.15 433 122.66 433 123.87V136.7C432.983 137.287 432.831 137.863 432.555 138.381C432.28 138.9 431.888 139.348 431.41 139.69Z" fill="#757B89"/>
<path d="M431.41 160.72C430.53 161.22 429.82 160.72 429.82 159.51V146.68C429.829 146.083 429.977 145.496 430.253 144.966C430.529 144.437 430.926 143.979 431.41 143.63C432.29 143.13 433 143.63 433 144.84V157.67C432.991 158.267 432.843 158.854 432.567 159.384C432.291 159.913 431.894 160.371 431.41 160.72Z" fill="#757B89"/>
<path d="M399 371.8L314.15 322.8C309.75 320.26 306.15 313.43 306.15 307.56V150C306.15 144.12 309.73 141.42 314.15 144L399 193C403.41 195.55 407 202.37 407 208.25V365.85C407 371.64 403.38 374.34 399 371.8Z" fill="#E9EAF2"/>
<path d="M346.848 212.339C353.081 208.74 353.08 197.072 346.848 186.277C340.615 175.482 330.511 169.648 324.278 173.246C318.046 176.844 318.047 188.512 324.279 199.307C330.512 210.102 340.616 215.937 346.848 212.339Z" fill="#CED0DB"/>
<path d="M394 224.41L361.18 205.46V197.78L394 216.73V224.41Z" fill="#CED0DB"/>
<path d="M386.43 233.85L361.18 219.28V211.6L386.43 226.18V233.85Z" fill="#CED0DB"/>
<path d="M394 268.74L319.61 225.79V218.12L394 261.06V268.74Z" fill="#CED0DB"/>
<path d="M376.83 272.65L319.61 239.61V231.93L376.83 264.97V272.65Z" fill="#CED0DB"/>
<path d="M393.74 296.23L319.35 253.28V245.6L393.74 288.55V296.23Z" fill="#CED0DB"/>
<path d="M376.58 300.14L319.35 267.1V259.42L376.58 292.46V300.14Z" fill="#CED0DB"/>
<path d="M393.74 323.87L319.35 280.92V273.24L393.74 316.19V323.87Z" fill="#CED0DB"/>
<path d="M393.08 351.12L318.69 308.17V300.5L393.08 343.44V351.12Z" fill="#CED0DB"/>
<path d="M376.58 327.78L319.35 294.74V287.06L376.58 320.1V327.78Z" fill="#CED0DB"/>
<path d="M329.61 135.35C329.26 135.114 328.966 134.805 328.747 134.444C328.527 134.083 328.389 133.679 328.34 133.26L323 70.78L318.8 97.59C318.7 98.26 318.15 98.48 317.51 98.11L307.3 92.21C306.921 91.9599 306.605 91.6242 306.38 91.2299C306.154 90.8356 306.024 90.3937 306 89.94C306 89.11 306.59 88.77 307.31 89.18L316.41 94.44L322 58.6C322.1 57.92 322.69 57.71 323.33 58.11C323.674 58.3495 323.963 58.6583 324.18 59.0166C324.397 59.3748 324.537 59.7745 324.59 60.19L329.83 121.75L334.83 84.89C334.92 84.21 335.45 83.98 336.08 84.32C336.429 84.541 336.727 84.8336 336.955 85.1783C337.182 85.5231 337.334 85.9122 337.4 86.32L343.4 122.25L349.24 75.25C349.32 74.55 349.88 74.31 350.53 74.68C350.877 74.9016 351.172 75.1947 351.396 75.5396C351.62 75.8845 351.768 76.2733 351.83 76.68L358.77 137.6L364.53 107.6C364.65 106.98 365.17 106.78 365.79 107.11C366.443 107.546 366.899 108.221 367.06 108.99L372.92 139.19L378.17 93.73C378.25 93.04 378.79 92.78 379.44 93.14C379.793 93.3565 380.094 93.6478 380.322 93.9934C380.55 94.3389 380.7 94.7303 380.76 95.14L387.21 143.14L391.73 122.14C391.85 121.54 392.35 121.34 392.94 121.65C393.267 121.848 393.551 122.109 393.776 122.418C394.001 122.727 394.162 123.078 394.25 123.45L398.61 141.38L407.98 146.64C408.36 146.886 408.676 147.218 408.904 147.608C409.131 147.999 409.264 148.438 409.29 148.89C409.29 149.73 408.73 150.08 408 149.68L397.67 143.88C397.047 143.466 396.602 142.835 396.42 142.11L393.25 129.11L388.32 152.11C388.19 152.74 387.64 152.95 387.01 152.54C386.672 152.313 386.386 152.018 386.169 151.673C385.952 151.329 385.809 150.943 385.75 150.54L379.66 105.27L374.66 148.62C374.58 149.29 374.07 149.55 373.44 149.23C373.092 149.024 372.791 148.746 372.558 148.415C372.325 148.084 372.166 147.708 372.09 147.31L366 115.66L359.86 147.57C359.73 148.22 359.16 148.4 358.53 148.02C358.195 147.789 357.911 147.493 357.695 147.149C357.478 146.806 357.334 146.421 357.27 146.02L350.6 87.36L345 132.19C344.92 132.87 344.39 133.12 343.75 132.78C343.402 132.556 343.105 132.263 342.876 131.919C342.647 131.575 342.492 131.187 342.42 130.78L336.42 94.52L330.92 134.77C330.81 135.49 330.26 135.72 329.61 135.35Z" fill="#CED0DB"/>
<path d="M344.14 101.42C346.23 98.06 362.21 95.85 367.46 109.42C369.46 114.55 369.15 127.67 370.82 135.92C372.49 144.17 376.41 148.83 377.82 155.52C379.23 162.21 376.93 173.41 360.82 175.39C344.71 177.37 332.31 171.72 328.51 166.58C324.71 161.44 324.62 150.52 328.58 144.66C332.54 138.8 335.53 134.02 335.44 126.39L344.14 101.42Z" fill="#2B2A30"/>
<path d="M354.69 99.09C354.69 99.09 342.69 95.62 335.37 102.09C328.7 108.03 329.26 116.09 330.23 119.92C331.2 123.75 333.14 128.92 336.16 129.19C339.18 129.46 354.69 99.09 354.69 99.09Z" fill="#2B2A30"/>
<path d="M359.29 131.89C359.29 131.89 358.5 145.3 358.74 146.28C358.98 147.26 364.01 148.22 365.41 149.39C366.81 150.56 358.12 164.16 353.7 166.18C349.28 168.2 335.58 163.05 334.63 156.18C333.76 149.91 338.55 145.04 340.4 143.34C341.656 143.219 342.919 143.186 344.18 143.24L344.58 136.74C350.58 134.88 359.29 131.89 359.29 131.89Z" fill="#FFCEA9"/>
<path d="M326.87 157.22C326.79 156.85 324.87 157.93 324.82 157.96C324.77 157.99 323.87 192.36 322.17 195.47C317.89 202.78 306.51 215.13 306.23 216.52C305.39 220.69 307.81 216.95 311.72 216.52C313.92 216.25 326.83 203.18 329.72 200.2L329.9 200.31C329.9 200.19 329.9 200.08 329.95 199.97L330.33 199.58C330.435 198.657 330.465 197.728 330.42 196.8C335.79 159.43 329.19 156.94 326.87 157.22Z" fill="#FFCEA9"/>
<path d="M323.94 162.5L323.26 179.06L322.17 192.11C322.17 192.11 322.38 193.86 320.46 196.92C318.54 199.98 308.28 212.69 308.28 212.69L312.92 216.54L323.49 207.86L330.49 161.1L326.81 156.55L323.94 162.5Z" fill="white"/>
<path d="M361.13 147.59C364.89 148.17 369.2 150.18 369.79 152.24C370.48 154.65 371.97 165.99 368.71 174.62C365.45 183.25 363.25 188.74 361.38 192.45C361.38 192.45 345.08 199.45 331.94 191.29C331.94 191.29 331.04 182.05 330.94 177.1C318.81 166.52 329.18 153.47 339.45 143.34C340.679 143.214 341.918 143.197 343.15 143.29C343.15 143.29 333.99 154.13 340.36 160.29C354.05 156.16 356.76 150 361.13 147.59Z" fill="#F4F4F4"/>
<path d="M334.24 115.28C335.6 106.67 341.82 100.16 350.7 100.68C354.273 100.876 357.693 102.189 360.479 104.435C363.264 106.681 365.274 109.745 366.223 113.195C367.173 116.644 367.014 120.305 365.77 123.66C364.526 127.015 362.259 129.894 359.29 131.89C358.98 133.195 358.52 134.46 357.92 135.66C354.77 139.32 346.41 141.66 343.65 141.66C341.27 141.66 339.21 139.46 336.98 135.76C332.32 128.08 333.5 119.54 334.24 115.28Z" fill="#FFCEA9"/>
<path d="M353.45 100.84C359.68 102.06 364.81 103.84 366.5 109.93C367.66 114.14 369.17 122.18 367.73 125.56L366.83 128L359.29 131.89C359.29 131.89 355.77 128.96 356.86 120.36C356.826 119.194 356.458 118.063 355.8 117.1C355.347 116.284 355.01 115.409 354.8 114.5C354.04 112.1 352.11 110.5 349.91 109.21C344.29 106.06 336.07 108.78 334.91 109.92C338.67 102.14 346.21 99.42 353.45 100.84Z" fill="#2B2A30"/>
<path d="M375.56 237.18C374.56 248.06 368.5 294.3 368.5 294.3C370.876 302.083 372.135 310.163 372.24 318.3C372.18 325.03 370.42 336.45 368.43 347.03L364.94 372.18L356.61 367.36L356.94 348.61C356.51 342.33 355.89 333.06 355.49 327.13C354.84 317.49 353.11 302.13 352.61 298.35C352.11 294.57 350.89 287.85 350.3 280.35C349.71 272.85 346.89 234.8 346.89 234.8L346.5 241.93C346.5 241.93 346.13 253.51 344.5 267.77C342.87 282.03 342.24 288.39 342.24 288.39C342.24 288.39 345.13 293.69 345.5 297.6C345.8 300.69 349.32 325.09 347.21 337.51L344.12 360.13L334.12 354.39L332.83 338.24C331.12 326.14 327.51 300.48 326.95 297.14C326.23 292.75 325.63 290.59 324.79 276.79C323.95 262.99 324.26 233.02 325.65 222.15C327.04 211.28 331.05 195.49 331.05 195.49C334.835 197.268 338.933 198.288 343.11 198.49C350.11 198.85 361.36 196.72 361.36 196.72C363.323 200.15 365.469 203.471 367.79 206.67C370.94 211 377 220.53 375.56 237.18Z" fill="#FFCEA9"/>
<path d="M361.38 192.45L370.74 211.26C370.74 211.26 385.03 232.17 370.22 285.93L373 302.51C373 302.51 345 320.51 326.23 302.51C326.23 302.51 319.72 252.83 323.18 229.92C325.101 216.744 328.019 203.734 331.91 191C331.91 191 336.5 196.07 360.13 192.72" fill="#E26161"/>
<path d="M339.49 143.34C339.49 143.34 325.63 145.6 323.94 162.5L327.11 159.33C327.11 159.33 334.88 147.57 339.49 143.34Z" fill="white"/>
<path d="M343.19 143.29C339.61 150.2 330.19 161.49 332.86 173.71C336.4 190 329.62 287.61 329.62 287.61C329.62 287.61 321.62 282.54 321.62 278.48C321.62 274.42 324.62 169.06 324.62 164.07C324.62 159.08 333.38 150.22 339.33 143.3C340.904 142.734 342.568 142.46 344.24 142.49C344.24 142.86 344.24 142.91 344.19 143.29C343.89 143.31 343.72 143.29 343.19 143.29Z" fill="white"/>
<path d="M281.42 232.72L313.42 214.12L336.4 227.39L304.39 245.99L281.42 232.72Z" fill="#F4F4F4"/>
<path d="M309.29 215.48C307.29 215.94 305.29 216.09 303.61 217.34C302.99 217.893 302.32 218.388 301.61 218.82C301.29 218.99 300.98 219.19 300.61 219.33C300.119 219.501 299.679 219.794 299.33 220.18C298.967 220.699 298.768 221.316 298.76 221.95C298.604 222.713 298.566 223.496 298.65 224.27C298.93 225.42 300.12 225.33 300.75 224.53C301.068 224.13 301.253 223.64 301.28 223.13C301.296 222.644 301.426 222.169 301.661 221.743C301.895 221.317 302.228 220.953 302.63 220.68L310.28 215.93C310.183 215.761 310.035 215.626 309.858 215.545C309.68 215.464 309.481 215.442 309.29 215.48Z" fill="#FFCEA9"/>
<path d="M371.47 173.06C371.47 173.06 371.21 201.77 372.26 211.06C373.31 220.35 386.56 247.57 374.89 284.5C373.17 286.5 371.59 290.55 356.89 292.25C348.12 292.25 344.94 290.91 344.94 290.91C344.94 290.91 348.33 228.98 343.41 174.6C343.41 159.6 356.31 161.34 358.7 144.72C370.09 150.04 370.1 151.72 370.1 151.72L371.47 173.06Z" fill="white"/>
<path opacity="0.1" d="M365.69 151.4C359.42 152.1 358.6 160.05 358.6 160.05L358.31 172.22C358.31 172.22 358.99 187.74 360.79 192.47L333.59 211.16L339.52 218.07C339.52 218.07 368.26 204.8 370.52 202.7C372.78 200.6 370.52 176.25 370.87 169.24C372.38 156 372 150.7 365.69 151.4Z" fill="black"/>
<path d="M370.19 158.13C369.13 153.78 365.72 155.18 362.79 152.63C355.98 162.26 360.5 188.31 361.42 191.09L335.3 207.74C334.88 208.02 333.98 208.57 333.55 208.84C331.18 210.27 326.62 212.75 323.84 213.07C321.22 213.37 319.84 217.07 317.06 217.38C316.848 217.387 316.642 217.457 316.469 217.58C316.296 217.704 316.163 217.876 316.087 218.074C316.012 218.273 315.996 218.489 316.043 218.697C316.089 218.904 316.196 219.093 316.35 219.24C317.47 220.32 320.46 219.43 322.5 217.04C322.495 217.1 322.495 217.16 322.5 217.22C322.492 217.694 322.653 218.154 322.953 218.521C323.254 218.887 323.674 219.135 324.14 219.22C324.141 219.393 324.189 219.563 324.28 219.71C324.424 220.014 324.642 220.278 324.915 220.475C325.188 220.673 325.506 220.798 325.84 220.84C325.979 221.286 326.271 221.67 326.663 221.924C327.056 222.178 327.526 222.286 327.99 222.23C328.585 222.196 329.146 221.939 329.56 221.51C331.787 220.653 333.755 219.234 335.27 217.39C336.616 216.006 338.031 214.691 339.51 213.45C346.6 210.4 367.86 201.32 368.81 200.03C370.19 198.12 371.7 164.34 370.19 158.13Z" fill="#FFCEA9"/>
<path d="M364.64 149.3C358.37 150 357.55 157.95 357.55 157.95L357.26 170.11C357.26 170.11 357.94 185.64 359.73 190.37L332.54 209.06L338.47 215.97C338.47 215.97 367.21 202.7 369.42 200.6C371.63 198.5 372.19 176.86 372.57 169.86C374.13 156.64 370.92 148.6 364.64 149.3Z" fill="white"/>
<path opacity="0.4" d="M169.8 479.42C197.116 479.42 219.26 466.633 219.26 450.86C219.26 435.087 197.116 422.3 169.8 422.3C142.484 422.3 120.34 435.087 120.34 450.86C120.34 466.633 142.484 479.42 169.8 479.42Z" fill="#D6D8E5"/>
<path d="M134.56 239.1C134.01 243.91 128.27 264.66 129.5 271.77C130.73 278.88 150.34 290.77 150.34 290.77L153.06 278.6L142.2 268L145.13 247.85L134.56 239.1Z" fill="#FFCEA9"/>
<path d="M149.73 218.65C146.93 217.44 141.73 217.17 138.81 221.95C135.89 226.73 132.93 243.11 132.66 245.95C132.66 245.95 136.71 251.54 142.78 250.61L149.73 218.65Z" fill="#EDEDED"/>
<path d="M172.12 450C176.388 451.174 180.947 450.621 184.81 448.46C187.86 448.55 204.45 441.46 206.71 447.41C208.71 452.64 201.5 457.47 197.66 458.41C189.28 460.41 183.08 464.62 179.71 465.33C177.21 465.86 173.96 466.21 171.96 464.24C169.57 461.88 169.77 453.13 172.12 450Z" fill="#38226D"/>
<path d="M179.71 463.89C183.08 463.19 189.28 459.01 197.66 456.98C200.88 456.2 206.42 452.68 206.98 448.48C207.72 453.29 201.24 457.56 197.66 458.42C189.28 460.42 183.08 464.63 179.71 465.34C177.21 465.87 173.96 466.22 171.96 464.25C171.444 463.677 171.068 462.993 170.86 462.25C173.78 464.67 177.21 464.42 179.71 463.89Z" fill="#9C73FF"/>
<path d="M145.21 437.93C149.476 439.114 154.037 438.564 157.9 436.4C160.96 436.49 177.54 429.4 179.8 435.4C181.8 440.63 174.59 445.46 170.75 446.4C162.37 448.4 156.17 452.61 152.81 453.32C150.3 453.85 147.05 454.2 145.06 452.22C142.66 449.8 142.87 441.05 145.21 437.93Z" fill="#38226D"/>
<path d="M152.81 451.81C156.17 451.1 162.37 446.93 170.75 444.9C173.97 444.12 179.51 440.59 180.07 436.4C180.82 441.21 174.33 445.48 170.75 446.34C162.37 448.34 156.17 452.55 152.81 453.26C150.3 453.79 147.05 454.14 145.06 452.16C144.537 451.592 144.159 450.906 143.96 450.16C146.87 452.58 150.3 452.34 152.81 451.81Z" fill="#9C73FF"/>
<path d="M144.88 392.86C145.598 386.699 146.88 380.617 148.71 374.69C148.71 374.69 147.57 359 147 344.14C146.35 327.27 140.5 312.42 145.11 298.96L197.17 310.54C197.17 310.54 194.02 377.8 193.32 385.94C192.944 392.276 192.169 398.582 191 404.82C188.62 417.88 184.76 448.94 184.76 448.94C179.25 452.14 172.03 450.37 172.03 450.37C172.03 450.37 172.43 411.09 172.78 401.68C173.21 390.19 173.56 391.07 173.56 391.07L171.84 362.46L170.72 348.22C170.72 348.22 169.28 358.67 168.34 368C167.52 376.14 165.56 383.5 163.34 398.64C161.44 411.78 158.34 438.18 158.34 438.18C152.84 441.38 145.34 438.73 145.34 438.73C145.34 438.73 143.39 404.26 144.88 392.86Z" fill="#8C50FF"/>
<path d="M152.48 218.93C156.48 219.13 159.4 220.15 159.9 218.93C160.323 216.883 160.624 214.813 160.8 212.73C160.34 211.58 159.95 210.35 159.95 210.35C154.95 207.28 153.4 201.9 152.74 195.64C151.63 184.93 157.41 175.55 168.12 174.43C178.19 173.43 185.6 180.43 187.57 190.18C188.64 194.97 190.76 204.04 187.89 211.93C186.29 216.34 184.23 219.84 182.16 220.52C180.168 220.463 178.181 220.289 176.21 220C176.21 220 175.68 223 175.31 224.88C174.94 226.76 175.09 227.8 178.89 230.15C182.69 232.5 173.14 237.3 166.89 236.83C160.64 236.36 153.64 232.59 151.71 228.55C149.58 224.1 149.76 218.8 152.48 218.93Z" fill="#FFCEA9"/>
<path d="M158.22 219.52C157.12 222.26 159.91 225.61 167.36 227.95C174.81 230.29 175.47 227.28 175.47 227.28C175.47 227.28 186.39 232.28 189.94 234.73C194.41 237.86 196.39 246.9 197 262.16C197.69 279.82 197.75 306.02 197.17 310.54C197.17 310.54 188.82 318.86 178.17 317.98C167.52 317.1 149.5 307.65 145.17 300.34C145.29 284.86 147.1 282.34 144.59 273.42C138.85 253 135.83 244.64 138.59 231.07C140.89 219.88 144.11 218.49 148.53 218.6C151.774 218.735 155.008 219.043 158.22 219.52Z" fill="#F4F4F4"/>
<path d="M213.8 276.76C205.03 278.97 202.97 273.44 201.8 268.86C199.01 257.77 197.51 247.76 195.43 241.47C192.98 234.05 190.43 232.86 186.81 231.42C182.57 229.72 178.93 233.3 180.34 242.74C182.01 253.92 184.2 261.74 188.34 274.99C189.43 278.44 191.87 284.58 195.54 287.54C200.06 291.2 206.88 291.04 217.19 288.48C221.59 287.38 226.41 284.75 234.73 280.87C236.96 279.87 238.73 279.14 242.98 277.14C247.23 275.14 251.73 271.81 253.98 268.56C256.23 265.31 256.52 263.78 256.06 263.04C255.49 262.11 254.47 262.31 253.27 263.68C251.539 265.994 249.4 267.972 246.96 269.52C246.96 269.52 249.73 266.66 251.23 264.8C252.576 263.151 253.693 261.328 254.55 259.38C255.34 257.48 253.71 254.91 252.47 256.26C251.23 257.61 250.64 258.99 248.37 261.71C247.171 263.157 245.805 264.456 244.3 265.58C245.707 263.682 246.961 261.676 248.05 259.58C249.49 256.64 249.47 255.13 249.41 254.14C249.35 253.15 247.95 251.97 246.64 253.84C245.45 255.53 244.64 258.17 241.93 261.04C239.93 263.12 238.22 264.32 238.17 263.74C238.12 263.16 239.38 262.02 240.1 259.6C240.82 257.18 240.1 254.6 238.76 254.34C237.42 254.08 237.68 254.14 236.6 256.4C235.52 258.66 233.88 260.34 232.6 263.65C231.49 266.56 230.99 267.74 228.99 269.86C226.9 272.12 222.14 274.66 213.8 276.76Z" fill="#FFCEA9"/>
<path d="M183.57 229.9C189.43 229.04 193.57 231.68 196.15 240.55C198.73 249.42 200.55 256.71 200.55 256.71C198.231 260.052 194.721 262.381 190.74 263.22C183.74 264.92 181.21 261.57 181.21 261.57C181.21 261.57 179.21 252.27 178.05 245.94C176.89 239.61 176.32 231 183.57 229.9Z" fill="#EDEDED"/>
<path d="M187.23 188.81C187.23 188.81 196.49 174.74 176.44 171.87C161.98 169.81 152.68 179.1 151.61 189.18C150.61 198.81 156.52 208.81 160.8 212.78C162.89 213.53 167.39 213.96 173.3 211.27C173.536 208.647 173.627 206.013 173.57 203.38C173.57 203.38 166.52 188.55 187.23 188.81Z" fill="#3A2C6D"/>
<path opacity="0.4" d="M54.58 362.22C67.8238 362.22 78.56 356.019 78.56 348.37C78.56 340.721 67.8238 334.52 54.58 334.52C41.3362 334.52 30.6 340.721 30.6 348.37C30.6 356.019 41.3362 362.22 54.58 362.22Z" fill="#D6D8E5"/>
<path d="M58 359.65C71.2438 359.65 81.98 353.449 81.98 345.8C81.98 338.151 71.2438 331.95 58 331.95C44.7562 331.95 34.02 338.151 34.02 345.8C34.02 353.449 44.7562 359.65 58 359.65Z" fill="#D6D8E5"/>
<path d="M25.9 298.46L34.29 346.76H81.92L90.11 298.81L25.9 298.46Z" fill="#D6D8E5"/>
<path d="M58 316.41C75.7449 316.41 90.13 308.105 90.13 297.86C90.13 287.615 75.7449 279.31 58 279.31C40.2551 279.31 25.87 287.615 25.87 297.86C25.87 308.105 40.2551 316.41 58 316.41Z" fill="#E4E6EF"/>
<path d="M58 312.32C50.13 312.32 42.79 310.59 37.33 307.44C32.65 304.73 29.96 301.24 29.96 297.86C29.96 294.48 32.65 290.99 37.33 288.29C42.78 285.14 50.13 283.4 58 283.4C65.87 283.4 73.22 285.14 78.68 288.29C83.36 290.99 86.04 294.48 86.04 297.86C86.04 301.24 83.36 304.73 78.68 307.44C73.22 310.59 65.88 312.32 58 312.32Z" fill="#28221C"/>
<path d="M71.83 283.25C71.83 283.25 71.2 244.09 58 230.25C41.89 244.43 44.44 283.31 44.44 283.31L58.2 308.31C60 308.37 71.83 283.25 71.83 283.25Z" fill="#99B524"/>
<path d="M58.2 308.28C58.2 308.28 50.87 261.36 23.63 243.73C23.63 243.73 18.77 308 58.2 308.28Z" fill="#A6CE28"/>
<path d="M58 308.28C58 308.28 64.61 262.28 91.16 245.68C91.16 245.68 97.43 308 58 308.28Z" fill="#A6CE28"/>
<path opacity="0.4" d="M342.45 500C355.677 500 366.4 493.808 366.4 486.17C366.4 478.532 355.677 472.34 342.45 472.34C329.223 472.34 318.5 478.532 318.5 486.17C318.5 493.808 329.223 500 342.45 500Z" fill="#D6D8E5"/>
<path d="M346.01 499.11C359.237 499.11 369.96 492.918 369.96 485.28C369.96 477.642 359.237 471.45 346.01 471.45C332.783 471.45 322.06 477.642 322.06 485.28C322.06 492.918 332.783 499.11 346.01 499.11Z" fill="#D9DCE8"/>
<path d="M322.06 485.06V478.12L329.67 480.67L322.06 485.06Z" fill="#D9DCE8"/>
<path d="M369.94 478.61V484.84L361.17 483.12L369.94 478.61Z" fill="#D9DCE8"/>
<path d="M346.01 492C359.237 492 369.96 485.808 369.96 478.17C369.96 470.532 359.237 464.34 346.01 464.34C332.783 464.34 322.06 470.532 322.06 478.17C322.06 485.808 332.783 492 346.01 492Z" fill="#EFF1F9"/>
<path d="M330.31 488.61L327.71 487.11L361.48 467.62L364.07 469.12L330.31 488.61Z" fill="#D3D6E2"/>
<path d="M327.71 487.11V494.21L330.07 495.61L330.4 495.77V488.61L327.71 487.11Z" fill="#C5C8D3"/>
<path opacity="0.4" d="M23.95 474.95C37.1772 474.95 47.9 468.758 47.9 461.12C47.9 453.482 37.1772 447.29 23.95 447.29C10.7228 447.29 0 453.482 0 461.12C0 468.758 10.7228 474.95 23.95 474.95Z" fill="#D6D8E5"/>
<path d="M27.51 474.06C40.7372 474.06 51.46 467.868 51.46 460.23C51.46 452.592 40.7372 446.4 27.51 446.4C14.2828 446.4 3.56 452.592 3.56 460.23C3.56 467.868 14.2828 474.06 27.51 474.06Z" fill="#D9DCE8"/>
<path d="M3.56 460V453.05L11.17 455.61L3.56 460Z" fill="#D9DCE8"/>
<path d="M51.44 453.56V459.79L42.67 458.06L51.44 453.56Z" fill="#D9DCE8"/>
<path d="M27.51 466.95C40.7372 466.95 51.46 460.758 51.46 453.12C51.46 445.482 40.7372 439.29 27.51 439.29C14.2828 439.29 3.56 445.482 3.56 453.12C3.56 460.758 14.2828 466.95 27.51 466.95Z" fill="#EFF1F9"/>
<path d="M11.81 463.56L9.21997 462.06L42.98 442.57L45.58 444.07L11.81 463.56Z" fill="#D3D6E2"/>
<path d="M9.21997 462.06V469.16L11.57 470.55L11.9 470.72V463.56L9.21997 462.06Z" fill="#C5C8D3"/>
<path opacity="0.4" d="M468.86 461.15C482.087 461.15 492.81 454.958 492.81 447.32C492.81 439.682 482.087 433.49 468.86 433.49C455.633 433.49 444.91 439.682 444.91 447.32C444.91 454.958 455.633 461.15 468.86 461.15Z" fill="#D6D8E5"/>
<path d="M472.41 460.26C485.637 460.26 496.36 454.068 496.36 446.43C496.36 438.792 485.637 432.6 472.41 432.6C459.183 432.6 448.46 438.792 448.46 446.43C448.46 454.068 459.183 460.26 472.41 460.26Z" fill="#D9DCE8"/>
<path d="M448.47 446.21C448.47 446.15 448.47 439.26 448.47 439.26L456.09 441.82L448.47 446.21Z" fill="#D9DCE8"/>
<path d="M496.35 439.76V445.99L487.58 444.26L496.35 439.76Z" fill="#D9DCE8"/>
<path d="M472.41 453.15C485.637 453.15 496.36 446.958 496.36 439.32C496.36 431.682 485.637 425.49 472.41 425.49C459.183 425.49 448.46 431.682 448.46 439.32C448.46 446.958 459.183 453.15 472.41 453.15Z" fill="#EFF1F9"/>
<path d="M456.72 449.76L454.12 448.26L487.88 428.77L490.48 430.27L456.72 449.76Z" fill="#D3D6E2"/>
<path d="M454.12 448.26V455.36L456.48 456.75L456.81 456.92V449.76L454.12 448.26Z" fill="#C5C8D3"/>
</g>
<defs>
<clipPath id="clip0">
<rect width="496.36" height="500" fill="white"/>
</clipPath>
</defs>
</svg>
