<svg width="50" height="41" viewBox="0 0 50 41" fill="none" xmlns="http://www.w3.org/2000/svg">
<path d="M32.9119 3.54594C33.2389 3.54594 33.5692 3.55954 33.9045 3.58537C36.3178 3.77165 38.6367 4.63232 40.2697 5.9444C41.906 7.25784 42.9256 9.11243 43.0655 11.0323C43.2155 13.0908 42.3779 14.9712 40.7078 16.3255L25.6772 28.4497C23.414 30.2838 19.7199 30.2893 17.4432 28.4605C16.341 27.574 15.7326 26.3952 15.7293 25.1402C15.7259 23.8852 16.3292 22.7037 17.4263 21.8158L27.9489 13.4593C28.7966 12.7822 30.165 12.7944 30.9992 13.4783C31.8351 14.1636 31.825 15.2649 30.9756 15.9393L20.4682 24.2836C20.1985 24.5025 20.0418 24.8085 20.0435 25.1334C20.0435 25.4584 20.2019 25.7643 20.4867 25.9941C20.7732 26.2239 21.1524 26.349 21.5551 26.349L21.5568 26.349C21.9596 26.349 22.3388 26.2225 22.6236 25.9914L37.6542 13.8672C39.3108 12.5238 39.1086 9.92279 37.2261 8.41084C36.3009 7.66846 34.9056 7.15994 33.4917 7.04981C32.6962 6.99135 31.1997 7.00766 30.1852 7.8289L13.2823 21.3617C11.8381 22.5297 11.1134 24.2156 11.2482 26.0988C11.3831 27.9697 12.3605 29.7672 13.9311 31.0289C17.2392 33.6857 22.9606 33.9128 25.9351 31.5021L38.1042 21.6445C38.9451 20.962 40.3101 20.962 41.1544 21.6391C41.9987 22.3175 42.0021 23.4189 41.1612 24.1001L28.9921 33.9577C24.3442 37.7267 15.8843 37.5078 10.8876 33.4954C8.57377 31.6367 7.13626 29.0139 6.94077 26.3C6.73349 23.4134 7.90304 20.7852 10.2337 18.898L27.1366 5.36518C28.5994 4.18091 30.6251 3.54594 32.9119 3.54594Z" fill="white"/>
</svg>
