<svg width="18" height="18" viewBox="0 0 18 18" fill="none" xmlns="http://www.w3.org/2000/svg">
<path fill-rule="evenodd" clip-rule="evenodd" d="M15.75 4.46869C15.7567 4.92394 15.6997 5.49469 15.6495 5.91094C15.6336 6.04845 15.6085 6.18475 15.5745 6.31894C16.2165 7.50769 16.5 8.93794 16.5 10.5002C16.5 12.3512 15.6098 13.8759 14.223 14.9154C12.849 15.9452 10.995 16.5002 9 16.5002C7.005 16.5002 5.151 15.9452 3.777 14.9154C2.39025 13.8759 1.5 12.3512 1.5 10.5002C1.5 8.93794 1.78275 7.50769 2.42625 6.31894C2.39224 6.18475 2.36718 6.04845 2.35125 5.91094C2.2995 5.49469 2.2425 4.92394 2.25 4.46869C2.2575 3.95644 2.325 3.44419 2.39925 2.93569C2.43375 2.70019 2.48775 2.47894 2.7435 2.33944C3.0045 2.19694 3.279 2.24944 3.54975 2.32669C4.46325 2.58544 5.31975 2.94919 6.12525 3.38419C6.975 3.12994 7.9335 3.00019 9 3.00019C10.0665 3.00019 11.025 3.12994 11.874 3.38494C12.6908 2.93839 13.5546 2.58373 14.4495 2.32744C14.7203 2.25019 14.9955 2.19694 15.2557 2.33944C15.5107 2.47894 15.5655 2.70019 15.6008 2.93569C15.6743 3.44419 15.7425 3.95644 15.75 4.46869ZM15 10.5002C15 9.23494 14.709 7.50019 13.125 7.50019C12.411 7.50019 11.7352 7.68769 11.0602 7.87519C10.386 8.06269 9.7125 8.25019 9 8.25019C8.2875 8.25019 7.614 8.06269 6.93975 7.87519C6.26475 7.68769 5.58975 7.50019 4.875 7.50019C3.2955 7.50019 3 9.24019 3 10.5002C3 11.8232 3.62025 12.9234 4.677 13.7154C5.745 14.5172 7.2675 15.0002 9 15.0002C10.7325 15.0002 12.2542 14.5164 13.323 13.7154C14.3797 12.9227 15 11.8232 15 10.5002ZM7.5 10.8752C7.5 11.9102 6.996 12.7502 6.375 12.7502C5.754 12.7502 5.25 11.9102 5.25 10.8752C5.25 9.84019 5.754 9.00019 6.375 9.00019C6.996 9.00019 7.5 9.84019 7.5 10.8752ZM11.625 12.7502C12.246 12.7502 12.75 11.9102 12.75 10.8752C12.75 9.84019 12.246 9.00019 11.625 9.00019C11.004 9.00019 10.5 9.84019 10.5 10.8752C10.5 11.9102 11.004 12.7502 11.625 12.7502Z" fill="white"/>
</svg>
