<svg width="32" height="32" viewBox="0 0 32 32" fill="none" xmlns="http://www.w3.org/2000/svg">
<path d="M16 13.3333C16.7364 13.3333 17.3333 13.9303 17.3333 14.6667V22.6667C17.3333 23.403 16.7364 24 16 24C15.2636 24 14.6667 23.403 14.6667 22.6667V14.6667C14.6667 13.9303 15.2636 13.3333 16 13.3333Z" fill="#CCD6F6"/>
<path d="M16 10.6667C16.7364 10.6667 17.3333 10.0697 17.3333 9.33333C17.3333 8.59695 16.7364 8 16 8C15.2636 8 14.6667 8.59695 14.6667 9.33333C14.6667 10.0697 15.2636 10.6667 16 10.6667Z" fill="#CCD6F6"/>
<path fill-rule="evenodd" clip-rule="evenodd" d="M16 29.3333C23.3638 29.3333 29.3333 23.3638 29.3333 16C29.3333 8.6362 23.3638 2.66666 16 2.66666C8.63619 2.66666 2.66666 8.6362 2.66666 16C2.66666 23.3638 8.63619 29.3333 16 29.3333ZM16 26.6667C21.891 26.6667 26.6667 21.891 26.6667 16C26.6667 10.109 21.891 5.33333 16 5.33333C10.109 5.33333 5.33332 10.109 5.33332 16C5.33332 21.891 10.109 26.6667 16 26.6667Z" fill="#CCD6F6"/>
</svg>
