<svg width="32" height="32" viewBox="0 0 32 32" fill="none" xmlns="http://www.w3.org/2000/svg">
<path opacity="0.1" fill-rule="evenodd" clip-rule="evenodd" d="M0 16C0 7.16344 7.16344 0 16 0C24.8366 0 32 7.16344 32 16C32 24.8366 24.8366 32 16 32C7.16344 32 0 24.8366 0 16Z" fill="white"/>
<path fill-rule="evenodd" clip-rule="evenodd" d="M11.3925 8.46387C10.6159 8.46387 9.87103 8.77239 9.32186 9.32156C8.77269 9.87073 8.46417 10.6156 8.46417 11.3922V20.1772C8.46417 20.9538 8.77269 21.6987 9.32186 22.2478C9.87103 22.797 10.6159 23.1055 11.3925 23.1055H20.1775C20.9542 23.1055 21.699 22.797 22.2482 22.2478C22.7973 21.6987 23.1058 20.9538 23.1058 20.1772V11.3922C23.1058 10.6156 22.7973 9.87073 22.2482 9.32156C21.699 8.77239 20.9542 8.46387 20.1775 8.46387H11.3925ZM9.92834 11.3922C9.92834 11.0039 10.0826 10.6315 10.3572 10.3569C10.6318 10.0823 11.0042 9.92803 11.3925 9.92803H20.1775C20.5658 9.92803 20.9382 10.0823 21.2128 10.3569C21.4874 10.6315 21.6417 11.0039 21.6417 11.3922V20.1772C21.6417 20.5655 21.4874 20.9379 21.2128 21.2125C20.9382 21.4871 20.5658 21.6414 20.1775 21.6414H11.3925C11.0042 21.6414 10.6318 21.4871 10.3572 21.2125C10.0826 20.9379 9.92834 20.5655 9.92834 20.1772V11.3922ZM13.5888 15.0526C13.5888 14.8585 13.5116 14.6722 13.3743 14.535C13.237 14.3977 13.0508 14.3205 12.8567 14.3205C12.6625 14.3205 12.4763 14.3977 12.339 14.535C12.2017 14.6722 12.1246 14.8585 12.1246 15.0526V19.4451C12.1246 19.6393 12.2017 19.8255 12.339 19.9628C12.4763 20.1001 12.6625 20.1772 12.8567 20.1772C13.0508 20.1772 13.237 20.1001 13.3743 19.9628C13.5116 19.8255 13.5888 19.6393 13.5888 19.4451V15.0526ZM13.9548 12.4903C13.9548 12.7816 13.8391 13.0609 13.6332 13.2668C13.4272 13.4728 13.1479 13.5885 12.8567 13.5885C12.5654 13.5885 12.2861 13.4728 12.0802 13.2668C11.8742 13.0609 11.7585 12.7816 11.7585 12.4903C11.7585 12.1991 11.8742 11.9198 12.0802 11.7138C12.2861 11.5079 12.5654 11.3922 12.8567 11.3922C13.1479 11.3922 13.4272 11.5079 13.6332 11.7138C13.8391 11.9198 13.9548 12.1991 13.9548 12.4903ZM15.785 14.3205C16.0339 14.3205 16.2535 14.445 16.3853 14.6339C16.7626 14.4282 17.1855 14.3205 17.6152 14.3205C19.1965 14.3205 20.1775 15.7305 20.1775 16.9348V19.4451C20.1775 19.6393 20.1004 19.8255 19.9631 19.9628C19.8258 20.1001 19.6396 20.1772 19.4454 20.1772C19.2513 20.1772 19.0651 20.1001 18.9278 19.9628C18.7905 19.8255 18.7133 19.6393 18.7133 19.4451V16.9341C18.7133 16.3718 18.2302 15.784 17.6152 15.784C17.2316 15.784 16.8077 15.9926 16.5171 16.489V19.4451C16.5171 19.6393 16.44 19.8255 16.3027 19.9628C16.1654 20.1001 15.9792 20.1772 15.785 20.1772C15.5908 20.1772 15.4046 20.1001 15.2673 19.9628C15.1301 19.8255 15.0529 19.6393 15.0529 19.4451V15.0526C15.0529 14.8585 15.1301 14.6722 15.2673 14.535C15.4046 14.3977 15.5908 14.3205 15.785 14.3205Z" fill="white"/>
</svg>
