<svg width="18" height="18" viewBox="0 0 18 18" fill="none" xmlns="http://www.w3.org/2000/svg">
<path fill-rule="evenodd" clip-rule="evenodd" d="M9 3C8.10276 3.00044 7.21705 3.2021 6.40806 3.59013C5.59907 3.97817 4.88741 4.5427 4.32547 5.24217C3.76352 5.94163 3.3656 6.75822 3.16101 7.63182C2.95641 8.50542 2.95034 9.41378 3.14326 10.29C3.33617 11.1663 3.72314 11.9881 4.2757 12.695C4.82825 13.4019 5.53231 13.9759 6.33604 14.3747C7.13977 14.7735 8.02272 14.987 8.91987 14.9994C9.81702 15.0118 10.7055 14.8229 11.52 14.4465C11.7005 14.3628 11.9069 14.3542 12.0938 14.4226C12.2806 14.491 12.4326 14.6309 12.5164 14.8114C12.6001 14.9919 12.6087 15.1983 12.5403 15.3851C12.4719 15.572 12.332 15.724 12.1515 15.8077C11.1639 16.2652 10.0884 16.5014 9 16.5C4.85775 16.5 1.5 13.1422 1.5 9C1.5 4.85775 4.85775 1.5 9 1.5C13.1422 1.5 16.5 4.85775 16.5 9V9.01425C16.4685 10.6568 15.945 11.763 15.1747 12.4493C14.4217 13.1198 13.53 13.3027 12.9075 13.3027C12.0135 13.3027 11.2282 12.8378 10.779 12.1373C9.222 13.5135 6.9765 13.8165 5.5905 12.276C4.146 10.671 4.54875 7.99125 6.09 6.279C7.581 4.62225 10.2923 3.9825 11.8485 5.8995C11.916 5.71811 12.051 5.56985 12.2253 5.4857C12.3996 5.40156 12.5997 5.38805 12.7837 5.448C12.9677 5.50795 13.1215 5.63673 13.2127 5.80739C13.304 5.97806 13.3258 6.1774 13.2735 6.36375C12.8295 7.92075 12.306 9.4635 11.9138 11.034C11.971 11.254 12.0996 11.4488 12.2794 11.588C12.4593 11.7271 12.6801 11.8026 12.9075 11.8028C13.2675 11.8028 13.7685 11.6932 14.1772 11.3295C14.5672 10.9822 14.9737 10.314 15 8.99325C14.9982 7.40312 14.3653 5.87873 13.2403 4.75497C12.1152 3.63121 10.5901 3 9 3V3ZM10.7647 9.6855C10.8172 9.5055 10.9545 9.02475 11.115 8.4645C11.2897 7.8495 11.0625 7.26 10.584 6.7275C9.894 5.96175 8.415 5.93775 7.20525 7.2825C5.988 8.634 5.94375 10.4257 6.70575 11.2725C7.395 12.0382 8.874 12.0622 10.0845 10.7175C10.3643 10.407 10.6275 10.0845 10.7647 9.6855V9.6855Z" fill="white"/>
</svg>
